<svg width="226" height="213" viewBox="0 0 226 213" fill="none" xmlns="http://www.w3.org/2000/svg">
<ellipse cx="113" cy="106.5" rx="113" ry="106.5" fill="#242529"/>
<g clip-path="url(#clip0_28_160)">
<path d="M45.6035 106.359C45.6035 117.209 55.6422 127.338 71.4689 133.047C68.3084 149.84 70.9025 163.375 79.5669 168.648C88.473 174.069 101.741 170.317 114.334 158.699C126.609 169.848 139.016 174.235 147.672 168.946C156.569 163.51 159.276 149.058 156.028 131.741C172.512 125.989 181.733 117.352 181.733 106.359C181.733 95.7605 171.676 86.5913 156.063 80.9185C159.559 62.8862 156.596 49.68 147.573 44.1883C138.874 38.894 126.324 43.5085 113.868 54.9493C100.91 42.8058 88.4832 39.0983 79.4689 44.606C70.7782 49.9154 68.2982 63.696 71.4689 80.7994C56.1766 86.4266 45.6035 95.8029 45.6035 106.359Z" fill="white"/>
<path d="M152.756 86.5519C151.501 86.0963 150.202 85.6653 148.864 85.2576C149.084 84.3103 149.286 83.3753 149.465 82.4561C152.411 67.3635 150.485 55.2048 143.908 51.2016C137.601 47.3631 127.286 51.3654 116.869 60.9334C115.868 61.8534 114.863 62.8275 113.859 63.8484C113.19 63.173 112.522 62.5202 111.856 61.8959C100.938 51.6652 89.9956 47.3538 83.4247 51.3686C77.1238 55.2182 75.2579 66.6486 77.9097 80.9519C78.1658 82.3335 78.4651 83.7443 78.8036 85.1788C77.2549 85.6428 75.7597 86.1375 74.3292 86.6637C61.5297 91.3734 53.3555 98.7547 53.3555 106.411C53.3555 114.319 62.1306 122.25 75.4621 127.059C76.5142 127.439 77.6059 127.798 78.7309 128.138C78.3657 129.69 78.0481 131.21 77.7815 132.693C75.253 146.748 77.2276 157.908 83.5116 161.734C90.0024 165.684 100.896 161.623 111.503 151.837C112.342 151.064 113.183 150.243 114.026 149.384C115.119 150.494 116.209 151.545 117.294 152.531C127.569 161.862 137.717 165.63 143.995 161.794C150.479 157.832 152.587 145.844 149.851 131.257C149.642 130.143 149.399 129.005 149.126 127.847C149.891 127.608 150.642 127.362 151.374 127.105C165.233 122.259 174.251 114.424 174.251 106.411C174.251 98.727 165.813 91.296 152.756 86.5519Z" fill="#53C1DE"/>
<path d="M149.75 121.932C149.089 122.162 148.41 122.386 147.719 122.602C146.189 117.49 144.124 112.054 141.597 106.438C144.009 100.955 145.994 95.5884 147.481 90.5094C148.718 90.8871 149.918 91.2855 151.075 91.7059C162.262 95.7706 169.086 101.78 169.086 106.411C169.086 111.344 161.716 117.747 149.75 121.932ZM144.784 132.316C145.994 138.766 146.167 144.597 145.366 149.156C144.646 153.252 143.198 155.983 141.407 157.077C137.597 159.404 129.45 156.379 120.663 148.399C119.655 147.484 118.641 146.507 117.623 145.473C121.029 141.541 124.434 136.97 127.757 131.893C133.601 131.346 139.123 130.451 144.13 129.229C144.377 130.279 144.596 131.309 144.784 132.316ZM94.5716 156.675C90.8492 158.062 87.8845 158.102 86.0924 157.011C82.2789 154.69 80.6936 145.729 82.8561 133.709C83.1038 132.333 83.3986 130.919 83.7384 129.473C88.6908 130.629 94.1719 131.461 100.03 131.962C103.375 136.93 106.878 141.496 110.408 145.494C109.637 146.28 108.869 147.028 108.105 147.733C103.414 152.06 98.714 155.131 94.5716 156.675ZM77.1326 121.901C71.2376 119.775 66.3694 117.011 63.0324 113.995C60.0339 111.285 58.52 108.594 58.52 106.411C58.52 101.765 65.0832 95.8387 76.0293 91.8108C77.3575 91.3221 78.7478 90.8615 80.1907 90.4288C81.7035 95.6225 83.688 101.053 86.0829 106.544C83.657 112.116 81.6443 117.633 80.1167 122.887C79.0881 122.575 78.0915 122.247 77.1326 121.901ZM82.9783 79.9051C80.7063 67.6503 82.2152 58.4058 86.0123 56.086C90.0568 53.6147 99.0004 57.1382 108.427 65.9719C109.029 66.5366 109.634 67.1275 110.241 67.7389C106.728 71.7196 103.257 76.2515 99.9419 81.1899C94.2561 81.7461 88.8135 82.6396 83.8094 83.8361C83.4948 82.5004 83.2161 81.1881 82.9783 79.9051ZM135.127 93.4956C133.931 91.3148 132.703 89.1856 131.451 87.1145C135.308 87.6291 139.004 88.3123 142.474 89.1483C141.432 92.6727 140.134 96.3577 138.605 100.135C137.508 97.938 136.348 95.7224 135.127 93.4956ZM113.861 71.6344C116.243 74.3582 118.629 77.3993 120.975 80.6989C118.611 80.581 116.217 80.5197 113.803 80.5197C111.412 80.5197 109.036 80.5797 106.686 80.6955C109.035 77.4266 111.442 74.3896 113.861 71.6344ZM92.4586 93.5333C91.2636 95.7202 90.1253 97.9237 89.0459 100.131C87.5419 96.3668 86.2552 92.665 85.2043 89.0906C88.6536 88.276 92.3318 87.6098 96.1646 87.1049C94.895 89.1951 93.6568 91.34 92.4586 93.5328V93.5333ZM96.275 126.106C92.3151 125.64 88.5815 125.008 85.133 124.216C86.2008 120.577 87.5158 116.797 89.0517 112.951C90.1339 115.157 91.2768 117.361 92.479 119.553H92.4792C93.7039 121.786 94.9727 123.973 96.275 126.106ZM114.004 141.572C111.556 138.785 109.114 135.701 106.73 132.385C109.045 132.48 111.405 132.529 113.803 132.529C116.267 132.529 118.703 132.471 121.101 132.358C118.747 135.735 116.37 138.823 114.004 141.572ZM138.654 112.755C140.27 116.642 141.632 120.403 142.714 123.979C139.209 124.823 135.424 125.503 131.437 126.008C132.692 123.909 133.93 121.743 135.148 119.516C136.379 117.262 137.549 115.004 138.654 112.755ZM130.674 116.793C128.784 120.251 126.844 123.552 124.874 126.668C121.287 126.939 117.581 127.079 113.803 127.079C110.041 127.079 106.382 126.955 102.858 126.714C100.808 123.557 98.8261 120.246 96.9484 116.822H96.9488C95.076 113.408 93.3523 109.965 91.7904 106.542C93.3519 103.11 95.071 99.6636 96.9331 96.2557L96.9326 96.2564C98.7996 92.8394 100.765 89.5444 102.795 86.407C106.39 86.1202 110.077 85.9705 113.803 85.9705H113.803C117.546 85.9705 121.238 86.1213 124.832 86.4107C126.831 89.5251 128.783 92.8094 130.657 96.2269C132.553 99.6827 134.294 103.106 135.869 106.464C134.299 109.88 132.561 113.338 130.674 116.793ZM141.328 55.9238C145.376 58.3878 146.951 68.3251 144.407 81.3559C144.245 82.1874 144.062 83.0343 143.864 83.8926C138.848 82.6712 133.402 81.7622 127.699 81.1976C124.377 76.2049 120.935 71.666 117.48 67.7364C118.409 66.7932 119.336 65.8938 120.26 65.0451C129.185 56.8473 137.527 53.6107 141.328 55.9238Z" fill="white"/>
<path d="M113.803 95.0172C119.765 95.0172 124.599 100.118 124.599 106.411C124.599 112.704 119.765 117.805 113.803 117.805C107.841 117.805 103.008 112.704 103.008 106.411C103.008 100.118 107.841 95.0172 113.803 95.0172Z" fill="#53C1DE"/>
</g>
<defs>
<clipPath id="clip0_28_160">
<rect width="136.97" height="129.878" fill="white" transform="translate(45.2 41.561)"/>
</clipPath>
</defs>
</svg>
